<?xml version="1.0" encoding="UTF-8"?>
<svg width="40px" height="50px" viewBox="0 0 40 50" version="1.1" xmlns="http://www.w3.org/2000/svg" xmlns:xlink="http://www.w3.org/1999/xlink">
    <!-- Generator: Sketch 53.2 (72643) - https://sketchapp.com -->
    <title>Teztech Logo</title>
    <desc>Created with Sketch.</desc>
    <defs>
        <path d="M19.9851876,0 C19.7060116,0.00198452074 19.4273377,0.0704504862 19.1737695,0.204405636 L19.1737695,0.204405636 L0.923891895,9.86009129 C0.354995418,10.1607462 0,10.7466759 0,11.3846993 L0,11.3846993 L0,32.5530859 C0,33.1524112 0.31432409,33.7095654 0.830498475,34.0246081 L0.830498475,34.0246081 L27.002247,50 L26.9073472,42.3715023 C26.906343,42.2886485 26.9123684,42.2067871 26.9229128,42.1259178 L26.9229128,42.1259178 L19.4037382,37.5446517 C19.0904184,37.8214924 18.6922411,38.0120064 18.242848,38.0695575 L18.242848,38.0695575 C17.0598647,38.2213733 15.9763002,37.3968049 15.8221508,36.2274261 L15.8221508,36.2274261 C15.6685036,35.0580472 16.5035211,33.9873983 17.6865044,33.8355825 L17.6865044,33.8355825 C18.8694877,33.6837666 19.9540565,34.508335 20.1077037,35.6777138 L20.1077037,35.6777138 C20.1448602,35.9644771 20.122265,36.2452868 20.0504626,36.5087319 L20.0504626,36.5087319 L27.5058685,41.051796 C27.5816879,40.9863068 27.6610221,40.9247867 27.7488922,40.8717007 L27.7488922,40.8717007 L32.038462,38.2967851 L17.9621656,29.7196864 C17.6488458,29.9965271 17.2506684,30.1870411 16.8017775,30.2445922 L16.8017775,30.2445922 C15.6182921,30.396408 14.5347275,29.5718397 14.3810803,28.4024608 L14.3810803,28.4024608 C14.2274331,27.233082 15.0614463,26.162433 16.2449318,26.0106172 L16.2449318,26.0106172 C17.4284172,25.8588013 18.5119817,26.6833697 18.665629,27.8527486 L18.665629,27.8527486 C18.7037897,28.1400079 18.6811945,28.4203215 18.6093921,28.6837666 L18.6093921,28.6837666 L33.2209432,37.5873189 L37.9835055,34.7281207 L27.6931574,28.4575313 C27.3793355,28.734868 26.980656,28.925382 26.5322672,28.9829331 L26.5322672,28.9829331 C25.3492839,29.134749 24.2652172,28.3101806 24.11157,27.1408017 L24.11157,27.1408017 C23.9579227,25.9714229 24.7924381,24.900774 25.9754215,24.7489581 L25.9754215,24.7489581 C27.1589069,24.5971423 28.2429735,25.4217107 28.3961186,26.5910895 L28.3961186,26.5910895 C28.4342794,26.8778527 28.4116842,27.1586624 28.3398818,27.4221076 L28.3398818,27.4221076 L39.1649825,34.0181584 C39.6841696,33.704108 40,33.1459615 40,32.5446517 L40,32.5446517 L40,11.3846993 C40,10.7466759 39.6450046,10.1607462 39.0761081,9.86009129 L39.0761081,9.86009129 L20.8262305,0.204405636 C20.5726623,0.0704504862 20.2939884,0.00198452074 20.0148124,0 L20.0148124,0 L19.9851876,0 Z M1.66501387,18.5230204 L1.66501387,12.3357809 C1.66501387,12.2509426 1.71271481,12.1730502 1.7885342,12.1328637 L1.7885342,12.1328637 L18.2187465,3.4401667 C18.3739001,3.35780909 18.5616911,3.46943838 18.5616911,3.64358008 L18.5616911,3.64358008 L18.5616911,9.83081961 C18.5616911,9.91565787 18.5144923,9.99404644 18.439175,10.034233 L18.439175,10.034233 L13.2352535,12.7867632 C13.1594341,12.8274459 13.1117332,12.9053384 13.1117332,12.9906728 L13.1117332,12.9906728 L13.1117332,25.5263941 C13.1117332,25.6117285 13.0645344,25.689621 12.988715,25.7298075 L12.988715,25.7298075 L7.4589207,28.6554872 C7.30376712,28.7378448 7.11547393,28.6267116 7.11547393,28.45257 L7.11547393,28.45257 L7.11547393,16.410002 C7.11547393,16.2358603 6.92718075,16.124231 6.77152505,16.2065886 L6.77152505,16.2065886 L2.00896276,18.7264338 C1.97331258,18.7452868 1.93565394,18.7542171 1.89899954,18.7542171 L1.89899954,18.7542171 C1.77648344,18.7542171 1.66501387,18.6574717 1.66501387,18.5230204 L1.66501387,18.5230204 Z" id="path-1"></path>
    </defs>
    <g id="Tezbox-Website" stroke="none" stroke-width="1" fill="none" fill-rule="evenodd">
        <g id="TezTech-Website" transform="translate(-102.000000, -25.000000)">
            <g id="Fold-1" transform="translate(-308.000000, -668.000000)">
                <g id="Teztech-Logo" transform="translate(410.000000, 693.000000)">
                    <mask id="mask-2" fill="white">
                        <use xlink:href="#path-1"></use>
                    </mask>
                    <g id="Clip-2"></g>
                    <path d="M19.9851876,0 C19.7060116,0.00198452074 19.4273377,0.0704504862 19.1737695,0.204405636 L19.1737695,0.204405636 L0.923891895,9.86009129 C0.354995418,10.1607462 0,10.7466759 0,11.3846993 L0,11.3846993 L0,32.5530859 C0,33.1524112 0.31432409,33.7095654 0.830498475,34.0246081 L0.830498475,34.0246081 L27.002247,50 L26.9073472,42.3715023 C26.906343,42.2886485 26.9123684,42.2067871 26.9229128,42.1259178 L26.9229128,42.1259178 L19.4037382,37.5446517 C19.0904184,37.8214924 18.6922411,38.0120064 18.242848,38.0695575 L18.242848,38.0695575 C17.0598647,38.2213733 15.9763002,37.3968049 15.8221508,36.2274261 L15.8221508,36.2274261 C15.6685036,35.0580472 16.5035211,33.9873983 17.6865044,33.8355825 L17.6865044,33.8355825 C18.8694877,33.6837666 19.9540565,34.508335 20.1077037,35.6777138 L20.1077037,35.6777138 C20.1448602,35.9644771 20.122265,36.2452868 20.0504626,36.5087319 L20.0504626,36.5087319 L27.5058685,41.051796 C27.5816879,40.9863068 27.6610221,40.9247867 27.7488922,40.8717007 L27.7488922,40.8717007 L32.038462,38.2967851 L17.9621656,29.7196864 C17.6488458,29.9965271 17.2506684,30.1870411 16.8017775,30.2445922 L16.8017775,30.2445922 C15.6182921,30.396408 14.5347275,29.5718397 14.3810803,28.4024608 L14.3810803,28.4024608 C14.2274331,27.233082 15.0614463,26.162433 16.2449318,26.0106172 L16.2449318,26.0106172 C17.4284172,25.8588013 18.5119817,26.6833697 18.665629,27.8527486 L18.665629,27.8527486 C18.7037897,28.1400079 18.6811945,28.4203215 18.6093921,28.6837666 L18.6093921,28.6837666 L33.2209432,37.5873189 L37.9835055,34.7281207 L27.6931574,28.4575313 C27.3793355,28.734868 26.980656,28.925382 26.5322672,28.9829331 L26.5322672,28.9829331 C25.3492839,29.134749 24.2652172,28.3101806 24.11157,27.1408017 L24.11157,27.1408017 C23.9579227,25.9714229 24.7924381,24.900774 25.9754215,24.7489581 L25.9754215,24.7489581 C27.1589069,24.5971423 28.2429735,25.4217107 28.3961186,26.5910895 L28.3961186,26.5910895 C28.4342794,26.8778527 28.4116842,27.1586624 28.3398818,27.4221076 L28.3398818,27.4221076 L39.1649825,34.0181584 C39.6841696,33.704108 40,33.1459615 40,32.5446517 L40,32.5446517 L40,11.3846993 C40,10.7466759 39.6450046,10.1607462 39.0761081,9.86009129 L39.0761081,9.86009129 L20.8262305,0.204405636 C20.5726623,0.0704504862 20.2939884,0.00198452074 20.0148124,0 L20.0148124,0 L19.9851876,0 Z M1.66501387,18.5230204 L1.66501387,12.3357809 C1.66501387,12.2509426 1.71271481,12.1730502 1.7885342,12.1328637 L1.7885342,12.1328637 L18.2187465,3.4401667 C18.3739001,3.35780909 18.5616911,3.46943838 18.5616911,3.64358008 L18.5616911,3.64358008 L18.5616911,9.83081961 C18.5616911,9.91565787 18.5144923,9.99404644 18.439175,10.034233 L18.439175,10.034233 L13.2352535,12.7867632 C13.1594341,12.8274459 13.1117332,12.9053384 13.1117332,12.9906728 L13.1117332,12.9906728 L13.1117332,25.5263941 C13.1117332,25.6117285 13.0645344,25.689621 12.988715,25.7298075 L12.988715,25.7298075 L7.4589207,28.6554872 C7.30376712,28.7378448 7.11547393,28.6267116 7.11547393,28.45257 L7.11547393,28.45257 L7.11547393,16.410002 C7.11547393,16.2358603 6.92718075,16.124231 6.77152505,16.2065886 L6.77152505,16.2065886 L2.00896276,18.7264338 C1.97331258,18.7452868 1.93565394,18.7542171 1.89899954,18.7542171 L1.89899954,18.7542171 C1.77648344,18.7542171 1.66501387,18.6574717 1.66501387,18.5230204 L1.66501387,18.5230204 Z" id="Fill-1" fill="#EEF6FF" mask="url(#mask-2)"></path>
                </g>
            </g>
        </g>
    </g>
</svg>