<svg xmlns="http://www.w3.org/2000/svg" width="74" height="70" viewBox="0 0 74 70"><g><g><path fill="#09d8aa" d="M53.768 22.422l-3.157-.995c2.371-9.383-3.849-15.837-9.406-17.413-6.413-1.818-13.26 1.116-16.224 7.119-1.757 3.56-1.95 7.257-.61 10.992 1.332 3.713 3.927 6.292 7.471 8.026L21.537 47.177c1.068 1.12 1.751 2.397 1.925 3.916.318 2.771-.652 5.016-2.893 6.589-2.322 1.63-4.844 1.752-7.32.37-2.395-1.335-3.61-3.475-3.525-6.26.133-4.357 4.037-7.431 8.31-6.586.357.07.588.12.82-.268 2.728-4.558 5.476-9.102 8.249-13.701-4.35-3.439-6.88-7.876-7.033-13.519-.117-4.309 1.259-8.141 3.983-11.454 5.452-6.631 15.035-8.22 22.29-3.696 7.705 4.802 9.533 13.703 7.425 19.854zM30.704 50.808h.98c5.705 0 11.41-.007 17.114.012.603.002.934-.109 1.17-.764 1.135-3.138 4.324-4.978 7.446-4.376 3.322.64 5.638 3.453 5.646 6.859.008 3.372-2.329 6.283-5.527 6.886-3.235.608-6.392-1.163-7.552-4.317-.244-.665-.557-.81-1.207-.807-4.707.03-9.414.017-14.12.017h-.86c-.616 4.834-2.631 8.855-6.332 11.908-3.699 3.05-7.958 4.19-12.692 3.63C6.562 68.885.032 61.368 0 52.665c-.038-9.77 7.118-15.779 12.9-16.987l.842 3.335c-4.408 1.316-7.607 4.04-9.342 8.372-1.224 3.059-1.317 6.202-.352 9.353 1.96 6.395 7.937 10.354 14.522 9.69 6.454-.65 13.066-6.944 12.135-15.62zm18.269-9.43l-5.288-9.788c-1.127-2.087-2.266-4.168-3.374-6.266-.224-.424-.454-.582-.95-.507-3.892.585-7.481-2.233-7.796-6.092-.34-4.159 2.65-7.596 6.662-7.66 3.952-.064 7.06 3.24 6.873 7.304-.076 1.646-.689 3.065-1.784 4.265-.271.298-.311.509-.115.869 2.37 4.347 4.724 8.703 7.083 13.055.036.066.092.12.193.249 4.96-2.182 9.879-1.979 14.642.64 3.64 2 6.207 5.02 7.711 8.928 2.998 7.782.08 16.624-6.927 21.045-6.963 4.394-15.537 2.884-20.658-2.323l2.3-2.462c3.212 2.991 6.965 4.314 11.272 3.76 3.207-.412 5.918-1.883 8.127-4.28 4.355-4.727 4.865-12.085 1.182-17.41-2.173-3.142-5.152-5.046-8.877-5.718-3.72-.67-7.082.38-10.276 2.39z"/></g></g></svg>