<svg xmlns="http://www.w3.org/2000/svg" width="115" height="68" viewBox="0 0 115 68"><g><g><path fill="#09d8aa" d="M41.36 57.191v7.661H53.41c.877 0 1.588.705 1.588 1.574 0 .87-.71 1.574-1.588 1.574H26.135a1.581 1.581 0 0 1-1.589-1.574c0-.87.712-1.574 1.589-1.574h12.048v-7.66H1.59A1.581 1.581 0 0 1 0 55.617V1.574C0 .704.711 0 1.589 0H113.41C114.29 0 115 .705 115 1.574v64.852c0 .87-.711 1.574-1.589 1.574H77.955a1.581 1.581 0 0 1-1.588-1.574v-9.235zM3.177 54.044h73.19V3.148H3.177zm64.61-25.448c0 .736-.065 1.463-.196 2.17-1.033 5.709-6.08 10.316-12.747 10.316-5.757 0-10.168-4.158-14.004-7.963l-1.066-1.065c-1.822 1.8-3.808 3.805-5.86 5.36-2.793 2.126-5.957 3.668-9.896 3.668-7.154 0-12.261-5.232-12.261-12.486 0-1.2.178-2.37.514-3.486v-.005c1.518-5.088 6.285-8.995 12.43-8.995 5.644 0 9.985 3.99 13.765 7.727l1.308 1.3c1.589-1.583 3.332-3.328 5.08-4.759 2.99-2.426 6.364-4.268 10.672-4.268 7.238 0 12.261 5.231 12.261 12.486zm-12.86 7.425c4.262 0 7.496-3.462 7.496-7.425 0-4.301-3.065-7.426-7.238-7.426-4.178 0-7.659 3.06-10.612 6.01-.42.42-.995 1.008-1.397 1.416 0 0 .757.708 1.14 1.074 1.033 1 2.094 2.064 3.22 3.028 2.14 1.842 4.523 3.323 7.392 3.323zM24.618 21.17c-4.258 0-7.496 3.458-7.496 7.426 0 4.3 3.065 7.425 7.238 7.425 4 0 7.36-2.805 10.229-5.634.551-.541 1.257-1.268 1.78-1.791 0 0-.916-.861-1.383-1.315-1.523-1.482-3.117-3.079-4.902-4.269-.005-.004-.01-.009-.014-.009-1.63-1.088-3.42-1.833-5.453-1.833zm54.927 43.682h32.279V3.148h-32.28zm22.958-48.193H88.865a1.582 1.582 0 0 1-1.589-1.574c0-.87.712-1.574 1.589-1.574h13.637c.877 0 1.588.704 1.588 1.574 0 .869-.71 1.574-1.588 1.574zm0 10.808H88.865a1.581 1.581 0 0 1-1.589-1.574c0-.869.712-1.573 1.589-1.573h13.637c.877 0 1.588.704 1.588 1.573 0 .87-.71 1.574-1.588 1.574zm-12.049 27.39h-3.177v-3.884h3.177z"/></g></g></svg>