<svg xmlns="http://www.w3.org/2000/svg" width="57" height="44" viewBox="0 0 57 44"><g><g><path fill="#09d8aa" d="M48.37 4.056c6.436 9.47 9.615 20.151 8.427 32.45a.182.182 0 0 1-.075.13c-4.875 3.582-9.597 5.756-14.254 7.197a.18.18 0 0 1-.2-.068 37.955 37.955 0 0 1-2.91-4.735.182.182 0 0 1 .098-.253 29.27 29.27 0 0 0 4.448-2.118.183.183 0 0 0 .015-.303c-.3-.224-.6-.46-.885-.695a.176.176 0 0 0-.186-.022c-9.218 4.26-19.316 4.26-28.644 0a.176.176 0 0 0-.184.025 23.74 23.74 0 0 1-.883.692.183.183 0 0 0 .018.303c1.42.814 2.896 1.531 4.446 2.12a.18.18 0 0 1 .099.25 33.803 33.803 0 0 1-2.912 4.738.184.184 0 0 1-.2.066C9.955 42.392 5.233 40.218.358 36.636a.196.196 0 0 1-.074-.133c-.994-10.637 1.03-21.407 8.42-32.45a.167.167 0 0 1 .076-.065A46.87 46.87 0 0 1 20.38.388a.183.183 0 0 1 .187.089 30.088 30.088 0 0 1 1.467 2.968c4.29-.656 8.649-.656 13.03 0 .388-.914.943-2.077 1.444-2.968a.176.176 0 0 1 .187-.088 46.998 46.998 0 0 1 11.6 3.599.146.146 0 0 1 .075.068zM24.215 24.28c.045-3.145-2.247-5.746-5.122-5.746-2.853 0-5.122 2.579-5.122 5.746 0 3.167 2.314 5.746 5.122 5.746 2.853 0 5.122-2.579 5.122-5.746zm18.938 0c.045-3.145-2.246-5.746-5.122-5.746-2.853 0-5.122 2.579-5.122 5.746 0 3.167 2.314 5.746 5.122 5.746 2.876 0 5.122-2.579 5.122-5.746z"/></g></g></svg>