<svg xmlns="http://www.w3.org/2000/svg" width="57" height="56" viewBox="0 0 57 56"><g><g><path fill="#09d8aa" d="M12.794 11.454h30.56c.416 0 .753.334.753.746v31.086a.75.75 0 0 1-.752.746h-7.997a.75.75 0 0 1-.752-.746V21.63a.75.75 0 0 0-.752-.746h-21.06a.749.749 0 0 1-.752-.746v-7.94c0-.411.337-.745.752-.745zm-2.558 34.72h21.06c.416 0 .752.334.752.746v7.94a.749.749 0 0 1-.752.746H.736a.749.749 0 0 1-.752-.747V23.773c0-.412.336-.746.751-.746h7.997c.416 0 .752.334.752.746v21.654c0 .413.337.747.752.747zm45.177-37.26h-7.448a.749.749 0 0 1-.752-.746V.773a.75.75 0 0 1 .752-.747h7.448a.75.75 0 0 1 .752.747v7.395a.75.75 0 0 1-.752.746z"/></g></g></svg>