<svg xmlns="http://www.w3.org/2000/svg" xmlns:xlink="http://www.w3.org/1999/xlink" viewBox="0 0 316.2 400.05"><defs><style>.cls-1{fill:url(#linear-gradient);}</style><linearGradient id="linear-gradient" x1="491.69" y1="255.6" x2="-42.56" y2="589.96" gradientTransform="matrix(1, 0, 0, -1, 0, 640.1)" gradientUnits="userSpaceOnUse"><stop offset="0" stop-color="#0d2133"/><stop offset="1" stop-color="#257b7e"/></linearGradient></defs><g id="Layer_2" data-name="Layer 2"><g id="Logo"><path class="cls-1" d="M309,79,164.7,1.65a13.83,13.83,0,0,0-13.1,0L7.3,78.85A13.82,13.82,0,0,0,0,91.05v169.3a13.84,13.84,0,0,0,6.6,11.8l206.9,127.9-.7-61a13.4,13.4,0,0,1,.1-2l-59.4-36.7a17.39,17.39,0,0,1-9.2,4.2,17,17,0,1,1,14.7-19.1,18.12,18.12,0,0,1-.4,6.6l58.9,36.3a13.3,13.3,0,0,1,1.9-1.4l33.9-20.6L142,237.75a17.39,17.39,0,0,1-9.2,4.2,17,17,0,1,1,14.7-19.1,18.12,18.12,0,0,1-.4,6.6l115.5,71.2,37.6-22.9-81.3-50.2a17.39,17.39,0,0,1-9.2,4.2,17,17,0,1,1,14.7-19.1,18.12,18.12,0,0,1-.4,6.6l85.6,52.8a13.84,13.84,0,0,0,6.6-11.8V91.15A13.54,13.54,0,0,0,309,79Zm-162.2-.3a1.78,1.78,0,0,1-1,1.6l-41.1,22a1.78,1.78,0,0,0-1,1.6v100.3a1.78,1.78,0,0,1-1,1.6L59,229.15a1.81,1.81,0,0,1-2.7-1.6v-96.3a1.81,1.81,0,0,0-2.7-1.6L16,149.85a1.81,1.81,0,0,1-2.7-1.6V98.75a1.78,1.78,0,0,1,1-1.6l129.9-69.5a1.81,1.81,0,0,1,2.7,1.6v49.4Z"/></g></g></svg>