<svg xmlns="http://www.w3.org/2000/svg" width="63" height="61" viewBox="0 0 63 61"><g><g><path fill="#09d8aa" d="M62.613 31.433c0 13.71-8.872 25.34-21.184 29.45-1.571.304-2.13-.664-2.13-1.49 0-1.022.037-4.364.037-8.518 0-2.896-.991-4.784-2.103-5.748 6.903-.768 14.156-3.393 14.156-15.315 0-3.388-1.203-6.157-3.19-8.331.321-.782 1.383-3.939-.304-8.214 0 0-2.6-.835-8.518 3.181-2.477-.688-5.132-1.032-7.766-1.044-2.635.012-5.287.356-7.76 1.044-5.925-4.016-8.528-3.181-8.528-3.181-1.683 4.275-.622 7.432-.3 8.214-1.984 2.174-3.195 4.943-3.195 8.33 0 11.895 7.239 14.556 14.125 15.34-.886.776-1.69 2.145-1.968 4.151-1.77.794-6.257 2.165-9.022-2.58 0 0-1.64-2.98-4.752-3.199 0 0-3.025-.039-.212 1.888 0 0 2.032.954 3.442 4.541 0 0 1.82 5.54 10.445 3.662.013 2.594.042 5.04.042 5.78 0 .82-.569 1.78-2.118 1.492C9.49 56.782.608 45.147.608 31.433.608 14.29 14.491.394 31.611.394c17.121 0 31.002 13.896 31.002 31.04zM12.22 44.61c-.069.154-.311.2-.532.095-.225-.102-.35-.312-.278-.467.067-.158.31-.202.534-.096.225.101.354.313.276.468zm1.524 1.363c-.147.137-.436.073-.632-.144-.203-.216-.241-.506-.091-.645.152-.137.432-.073.636.143.203.22.242.507.087.646zm1.047 1.742c-.19.133-.5.009-.693-.267-.19-.276-.19-.607.004-.74.193-.133.499-.013.693.26.19.281.19.613-.004.748zm1.77 2.019c-.17.188-.533.137-.798-.119-.27-.25-.346-.605-.176-.793.172-.187.536-.135.803.12.27.25.351.607.17.792zm2.286.682c-.075.243-.424.353-.775.25-.35-.107-.58-.391-.51-.637.074-.244.424-.36.778-.25.35.107.58.39.507.637zm2.602.289c.009.256-.289.468-.658.473-.37.008-.67-.2-.674-.45 0-.26.291-.47.662-.476.368-.007.67.198.67.453zm2.557-.098c.044.25-.212.507-.578.575-.36.065-.693-.09-.74-.337-.044-.256.217-.512.576-.579.367-.063.695.087.742.34z"/></g></g></svg>