<svg xmlns="http://www.w3.org/2000/svg" width="49" height="49" viewBox="0 0 49 49"><g><g><path fill="#09d8aa" d="M49 4.825v39.268A4.903 4.903 0 0 1 44.097 49H5.29a4.903 4.903 0 0 1-4.901-4.907V4.825a4.903 4.903 0 0 1 4.9-4.907H44.1c2.707 0 4.9 2.197 4.9 4.907zM15.986 17.758h-6.54v20.996h6.54zm.215-5.839c-.043-1.846-1.334-3.263-3.443-3.263-2.108 0-3.484 1.417-3.484 3.263 0 1.803 1.334 3.263 3.399 3.263 2.194 0 3.528-1.46 3.528-3.263zm23.663 14.426c0-6.182-3.226-9.06-7.53-9.06-3.528 0-5.636 2.019-6.496 3.393h-.13l-.3-2.92h-5.68c.086 1.89.172 4.079.172 6.698v14.298h6.54V26.646c0-.601.043-1.202.215-1.632.474-1.202 1.549-2.447 3.356-2.447 2.366 0 3.313 1.847 3.313 4.551v11.636h6.54z"/></g></g></svg>