<svg xmlns="http://www.w3.org/2000/svg" width="87" height="50" viewBox="0 0 87 50"><g><g><path fill="#09d8aa" d="M24.4.805C37.87.805 48.79 11.77 48.79 25.299S37.871 49.793 24.4 49.793C10.929 49.793.007 38.827.007 25.3S10.928.805 24.4.805zm38.953 1.434c6.736 0 12.196 10.324 12.196 23.06 0 12.734-5.46 23.06-12.195 23.06-6.736 0-12.197-10.326-12.197-23.06 0-12.733 5.46-23.06 12.196-23.06zm18.852 2.402c2.369 0 4.29 9.25 4.29 20.658 0 11.406-1.92 20.658-4.29 20.658s-4.288-9.25-4.288-20.658c0-11.408 1.92-20.658 4.288-20.658z"/></g></g></svg>