<svg xmlns="http://www.w3.org/2000/svg" width="54" height="44" viewBox="0 0 54 44"><g><g><path fill="#09d8aa" d="M53.403 5.537a21.904 21.904 0 0 1-6.295 1.727 11 11 0 0 0 4.819-6.068 21.926 21.926 0 0 1-6.96 2.661 10.941 10.941 0 0 0-8-3.463c-6.053 0-10.96 4.911-10.96 10.968 0 .86.096 1.697.283 2.5-9.109-.458-17.185-4.824-22.59-11.46a10.92 10.92 0 0 0-1.485 5.514c0 3.805 1.935 7.163 4.876 9.13a10.909 10.909 0 0 1-4.964-1.372l-.001.138c0 5.314 3.778 9.747 8.792 10.755a10.97 10.97 0 0 1-4.95.188c1.395 4.358 5.442 7.53 10.239 7.618a21.98 21.98 0 0 1-13.612 4.695c-.885 0-1.758-.052-2.615-.153a31.006 31.006 0 0 0 16.801 4.928c20.16 0 31.184-16.714 31.184-31.208 0-.477-.01-.949-.031-1.42 2.141-1.547 4-3.478 5.469-5.678z"/></g></g></svg>