<svg xmlns="http://www.w3.org/2000/svg" width="77" height="54" viewBox="0 0 77 54"><g><g><path fill="#09d8aa" d="M76.868 26.85s0 12.525-1.603 18.529a9.625 9.625 0 0 1-6.783 6.806c-5.982 1.608-29.971 1.608-29.971 1.608s-23.99 0-29.972-1.608a9.625 9.625 0 0 1-6.783-6.806C.153 39.375.153 26.849.153 26.849s0-12.525 1.603-18.528A9.625 9.625 0 0 1 8.54 1.515C14.52-.094 38.51-.094 38.51-.094s23.989 0 29.971 1.609c3.3.885 5.9 3.494 6.783 6.806 1.603 6.003 1.603 18.529 1.603 18.529zm-26.099 0L30.84 15.302v23.095z"/></g></g></svg>